<svg xmlns="http://www.w3.org/2000/svg" width="174" height="40" viewBox="0 0 174 40" fill="none"><path d="M157.787 26.1559L167.161 13.8442H158.863V9.2078H173.27V13.8442L163.896 26.1559H174V30.7922H157.787V26.1559Z" fill="black"></path><path d="M133.685 20.0779C133.685 18.4416 133.954 16.9351 134.492 15.5584C135.03 14.1558 135.773 12.948 136.72 11.9351C137.694 10.9221 138.846 10.1299 140.178 9.55843C141.51 8.987 142.957 8.70129 144.52 8.70129C146.056 8.70129 147.375 8.97401 148.477 9.51947C149.578 10.0389 150.577 10.8961 151.474 12.0909V9.20778H156.161V30.7922H151.474V27.987C150.449 29.1818 149.386 30.039 148.285 30.5584C147.209 31.0519 145.915 31.2987 144.404 31.2987C142.842 31.2987 141.408 31.026 140.101 30.4805C138.795 29.9091 137.668 29.1299 136.72 28.1429C135.773 27.1299 135.03 25.948 134.492 24.5974C133.954 23.2208 133.685 21.7143 133.685 20.0779ZM138.833 20.1948C138.833 21.1299 138.987 21.987 139.294 22.7662C139.602 23.5455 140.024 24.2208 140.562 24.7922C141.126 25.3377 141.792 25.7662 142.56 26.0779C143.354 26.3896 144.212 26.5455 145.134 26.5455C146.056 26.5455 146.889 26.3896 147.632 26.0779C148.4 25.7662 149.053 25.3247 149.591 24.7532C150.154 24.1818 150.577 23.5065 150.859 22.7273C151.166 21.9221 151.32 21.039 151.32 20.0779C151.32 19.0909 151.166 18.1948 150.859 17.3896C150.551 16.5844 150.116 15.8961 149.553 15.3247C148.989 14.7273 148.31 14.2727 147.516 13.961C146.748 13.6234 145.903 13.4545 144.981 13.4545C144.084 13.4545 143.252 13.6234 142.483 13.961C141.74 14.2987 141.1 14.7662 140.562 15.3636C140.024 15.961 139.602 16.6753 139.294 17.5065C138.987 18.3117 138.833 19.2078 138.833 20.1948Z" fill="black"></path><path d="M127.018 9.2078H132.127V30.7922H127.018V9.2078ZM127.018 2H132.127V6.87013H127.018V2Z" fill="black"></path><path d="M125.545 23.7013C124.648 26.1429 123.278 28.026 121.434 29.3506C119.615 30.6493 117.464 31.2987 114.979 31.2987C113.417 31.2987 111.944 31.013 110.561 30.4416C109.178 29.8442 107.961 29.039 106.911 28.026C105.887 26.987 105.08 25.7792 104.491 24.4026C103.902 23.026 103.607 21.5584 103.607 20C103.607 18.4156 103.889 16.9351 104.452 15.5584C105.041 14.1818 105.835 12.987 106.834 11.974C107.859 10.961 109.05 10.1688 110.407 9.59739C111.791 8.99999 113.263 8.70129 114.826 8.70129C117.387 8.70129 119.603 9.37661 121.472 10.7273C123.342 12.0779 124.7 13.974 125.545 16.4156H119.782C118.757 14.4415 117.105 13.4545 114.826 13.4545C113.929 13.4545 113.11 13.6234 112.367 13.961C111.624 14.2727 110.984 14.7143 110.446 15.2857C109.908 15.8571 109.485 16.5454 109.178 17.3506C108.896 18.1299 108.755 19 108.755 19.961C108.755 20.8961 108.909 21.7662 109.216 22.5714C109.524 23.3766 109.959 24.0779 110.523 24.6753C111.086 25.2467 111.739 25.7013 112.482 26.039C113.25 26.3766 114.07 26.5455 114.941 26.5455C116.017 26.5455 116.926 26.3247 117.669 25.8831C118.437 25.4156 119.142 24.6883 119.782 23.7013H125.545Z" fill="black"></path><path d="M79.5822 20.0779C79.5822 18.4416 79.8511 16.9351 80.389 15.5584C80.9269 14.1558 81.6696 12.948 82.6173 11.9351C83.5906 10.9221 84.7432 10.1299 86.0751 9.55843C87.407 8.987 88.8542 8.70129 90.4166 8.70129C91.9534 8.70129 93.2724 8.97401 94.3738 9.51947C95.4752 10.0389 96.4741 10.8961 97.3706 12.0909V9.20778H102.058V30.7922H97.3706V27.987C96.346 29.1818 95.2831 30.039 94.1817 30.5584C93.106 31.0519 91.8125 31.2987 90.3013 31.2987C88.7389 31.2987 87.3046 31.026 85.9983 30.4805C84.692 29.9091 83.565 29.1299 82.6173 28.1429C81.6696 27.1299 80.9269 25.948 80.389 24.5974C79.8511 23.2208 79.5822 21.7143 79.5822 20.0779ZM84.7304 20.1948C84.7304 21.1299 84.8841 21.987 85.1915 22.7662C85.4988 23.5455 85.9214 24.2208 86.4593 24.7922C87.0228 25.3377 87.6888 25.7662 88.4571 26.0779C89.2512 26.3896 90.1092 26.5455 91.0313 26.5455C91.9534 26.5455 92.7858 26.3896 93.5286 26.0779C94.297 25.7662 94.9501 25.3247 95.488 24.7532C96.0515 24.1818 96.4741 23.5065 96.7558 22.7273C97.0632 21.9221 97.2169 21.039 97.2169 20.0779C97.2169 19.0909 97.0632 18.1948 96.7558 17.3896C96.4485 16.5844 96.0131 15.8961 95.4496 15.3247C94.8861 14.7273 94.2073 14.2727 93.4133 13.961C92.6449 13.6234 91.7997 13.4545 90.8776 13.4545C89.9811 13.4545 89.1487 13.6234 88.3803 13.961C87.6375 14.2987 86.9972 14.7662 86.4593 15.3636C85.9214 15.961 85.4988 16.6753 85.1915 17.5065C84.8841 18.3117 84.7304 19.2078 84.7304 20.1948Z" fill="black"></path><path d="M56.7438 9.20778H61.431V11.7402C62.2507 10.7532 63.2496 9.99999 64.4278 9.48051C65.6316 8.96103 66.9635 8.70129 68.4234 8.70129C69.9602 8.70129 71.369 8.987 72.6496 9.55843C73.9559 10.1039 75.0829 10.8831 76.0306 11.8961C76.9783 12.8831 77.7082 14.0649 78.2205 15.4416C78.7584 16.7922 79.0273 18.2857 79.0273 19.9221C79.0273 21.5584 78.7584 23.0779 78.2205 24.4805C77.6826 25.8571 76.9398 27.0519 75.9921 28.0649C75.0701 29.0779 73.9559 29.8701 72.6496 30.4416C71.3433 31.013 69.9218 31.2987 68.385 31.2987C67.0787 31.2987 65.9133 31.1039 64.8888 30.7143C63.8643 30.2987 62.8526 29.6493 61.8536 28.7662V38H56.7438V9.20778ZM67.8087 26.5455C68.654 26.5455 69.448 26.3766 70.1908 26.039C70.9335 25.7013 71.5739 25.2467 72.1117 24.6753C72.6752 24.0779 73.1107 23.3896 73.418 22.6104C73.7254 21.8052 73.8791 20.948 73.8791 20.039C73.8791 19.0779 73.7254 18.1948 73.418 17.3896C73.1107 16.5844 72.6752 15.8961 72.1117 15.3247C71.5483 14.7273 70.8823 14.2727 70.1139 13.961C69.3711 13.6234 68.5515 13.4545 67.655 13.4545C66.7842 13.4545 65.9774 13.6234 65.2346 13.961C64.4918 14.2987 63.8387 14.7662 63.2752 15.3636C62.7373 15.9351 62.3147 16.6364 62.0073 17.4675C61.7 18.2727 61.5463 19.1428 61.5463 20.0779C61.5463 20.987 61.7 21.8442 62.0073 22.6493C62.3403 23.4286 62.7885 24.1169 63.352 24.7143C63.9155 25.2857 64.5815 25.7403 65.3499 26.0779C66.1182 26.3896 66.9379 26.5455 67.8087 26.5455Z" fill="black"></path><path d="M45.1483 23.9351C45.4044 24.8442 45.7502 25.5065 46.1856 25.9221C46.6466 26.3377 47.2485 26.5455 47.9913 26.5455C48.6573 26.5455 49.208 26.3506 49.6434 25.961C50.0788 25.5455 50.2965 25.039 50.2965 24.4416C50.2965 23.974 50.1685 23.5974 49.9123 23.3117C49.6562 23 49.336 22.7532 48.9518 22.5714C48.5932 22.3636 48.209 22.1948 47.7992 22.0649C47.3894 21.9091 47.018 21.7792 46.6851 21.6753C44.5592 20.9221 43.0352 20.0649 42.1131 19.1039C41.2166 18.1428 40.7684 16.8701 40.7684 15.2857C40.7684 14.3506 40.9477 13.4935 41.3063 12.7143C41.6649 11.9091 42.1643 11.2078 42.8046 10.6104C43.445 10.013 44.1878 9.54544 45.033 9.20778C45.9038 8.87012 46.8387 8.70129 47.8376 8.70129C48.8366 8.70129 49.7458 8.85713 50.5655 9.16882C51.4107 9.48051 52.1407 9.92207 52.7554 10.4935C53.3701 11.0649 53.8568 11.7532 54.2153 12.5584C54.5995 13.3377 54.8044 14.2078 54.8301 15.1688H49.8355C49.605 14.026 48.939 13.4545 47.8376 13.4545C47.2742 13.4545 46.8003 13.6364 46.4161 14C46.0575 14.3377 45.8782 14.7662 45.8782 15.2857C45.8782 15.6753 46.0191 16 46.3009 16.2597C46.5826 16.5195 46.9156 16.7403 47.2998 16.9221C47.684 17.1039 48.081 17.2467 48.4908 17.3506C48.9006 17.4545 49.2336 17.5454 49.4897 17.6234C50.5655 17.961 51.4747 18.3377 52.2175 18.7532C52.9859 19.1429 53.6006 19.5974 54.0617 20.1169C54.5483 20.6104 54.8941 21.1688 55.099 21.7922C55.3039 22.4156 55.4064 23.1299 55.4064 23.9351C55.4064 24.974 55.2015 25.948 54.7916 26.8571C54.4074 27.7403 53.8696 28.5195 53.178 29.1948C52.5121 29.8442 51.7181 30.3636 50.796 30.7532C49.8739 31.1169 48.875 31.2987 47.7992 31.2987C45.5453 31.2987 43.7267 30.6623 42.3436 29.3896C40.9861 28.0909 40.2049 26.2727 40 23.9351H45.1483Z" fill="black"></path><path d="M16.5012 20L33 10L16.5012 0L0 10L16.5012 20Z" fill="#E4ED64"></path><path d="M16.5012 29.4923L0 19.4923V30L16.5012 40L33 30V19.4923L16.5012 29.4923Z" fill="#E4ED64"></path></svg>